<?xml version="1.0" encoding="UTF-8"?>
<svg version="1.1" viewBox="0 0 800 800" width="1280" height="1280" xmlns="http://www.w3.org/2000/svg">
<path transform="translate(0)" d="m0 0h800v800h-800z" fill="#B9E2E0"/>
<path transform="translate(380,203)" d="m0 0h29l21 3 23 6 16 6 19 10 18 13 15 14 13 17 10 19 6 18 2 8 14 11 10 9 7 7 10 13 8 13 8 16 5 16 3 17v21l-4 20-6 17-9 17-10 14-9 10-14 14-17 13-15 9-15 8-19 8h-5l3-3 5-3 12-7 4-5 6-4 6-5 6-9 4-8 1-4v-11l-5-6-4-2h-6l-1 4 10 3v3l-11-1-5 4-4 10-9 17-3 4h-3l2-7 8-14 5-15v-13l-4-22-6-6-5-36-2-7-3-15-5-15-2 19-5 14-3 4h-4l-1-2-3-23-2-6-2 21-2 6h-10l-14 6-12 6h-5v-4l17-7 15-6h2l-2-7-6-17-9-20-8-16-6-11-4-6h-1l3 12 2 14 1 18v16l-5 17-4 1-8-30-9-27-12-26-7-13-3-5-3 1-11 18-9 19-8 22-3 8-8 26v7l21 8 9 4-1 4-5-1-16-7-9-4-2-1-1 6h-4l-2-10-9-4-1-2 6 1 5 1v-50l1-7-9 16-8 15-8 18-4 11-5 12-5 20-4 28h-5l-4-8-4-16-1-6v17l3 32 3 14 6 15 6 11 11 14 10 9 10 7 17 8 11 4-1 2h-8l-21-8-26-8-20-8-21-11-15-10-10-8-10-9-12-12-10-13-11-19-7-18-3-13-1-8v-20l2-16 5-17 7-16 9-15 11-13 11-12 13-11 5-5 3-14 5-15 1-4-5-12-2-8 3-1 14 7 8-10 9-10 6-7h2l-2-5 1-4 5 1 1 3 15-10 18-10 22-8 16-4 11-2z" fill="#0F0D0E"/>
<path transform="translate(379,324)" d="m0 0 3 1 9 16 9 19 8 20 5 16 7 26v4l3-1 5-17v-16l-1-18-3-19-2-8 3 1 8 13 8 16 7 15 6 14 4 12 1 1v6l-11 5-13 5-10 4v2h5l14-7 12-5 10 1 2-18 1-12 2 3 3 11 2 20 4-1 4-8 3-9 2-21 2 2 5 15 3 15 3 13 4 30 5 4 3 11 2 13v13l-5 15-9 15-2 6 3-1 6-10 7-14 3-7 5-4 11 1-3-2-7-3 1-5h6l6 4 4 5v11l-3 8-5 9-7 8-11 8-5 5-9 5-5 3-2 1 2 2-29 9-20 8-13 4-21 3h-35l-24-4-10-3 3-2 1-1-16-6-15-8-12-11-6-5-11-15-8-17-4-13-3-25-1-14v-22h1l4 21 5 13 5 1v-9l4-24 5-17 4-10 5-14 16-32 8-14 2-1-1 8-1 50-10-1 10 5 1 2v8h4l1-6 5 2 16 6 8 4h3v-3l-13-5-16-6-1-1v-7l6-20 4-13 4-10 10-24 9-17z" fill="#F9C8A2"/>
<path transform="translate(374,208)" d="m0 0h38l16 2 19 5 14 5 24 12 17 12 21 21 6 8 7 11 5 13 3 8v7l-1-2-6-2-13-8-16-7-1-5 1-10-1-2-3 1-6 8-2 2-8-1-26-8-9-3-10-14-11-10-13-10-10-6-4-1 8 18 2 10h2l2 11 2 10v4l-5-1-15-6-14-3-1-3h-26l-5-1v-2l-7-1-26-10-19-10-11-8v-3l12-7 16-9 21-8 15-4z" fill="#E4AB54"/>
<path transform="translate(505,296)" d="m0 0 16 8 19 10 16 11 16 15 11 11 9 13 6 10 7 15 6 21 1 5v28l-5 21-6 15-8 15-10 13-7 8h-2v2h-2l-1 3-8 7-9 8-18 12h-2l1-4h2l2-5 4-8 2-7v-13l-4-6-4-4 1-4 3-3 6 2h12l-5-17-1-5v-23l5 2 7 8 9 10 4 5 5 3-6-15-13-29-2-7 27 1-3-3-10-5-8-7-4-11-4-14-8-16-4-6-3-3 1-3 15-5 8-4h2l-1-2-15-4-16-6-9-6-8-8-14-9-9-4 1-5 4-10z" fill="#CA9243"/>
<path transform="translate(266,305)" d="m0 0 6 1 10 6v2l-16 5-19 10-17 12-13 11-4 4h-2v2h-2l-1 4 16-3 15-2h9l-4 6-12 15-8 11-11 11-17 12-1 3 13-1 15-5 4-3h2l-1 5-8 15-10 17-10 16-1 5 10-4 17-10 5-1-3 10-7 16-9 16-1 4h16l-1 5-2 4 4 1 10-4 4-3h2l1 18 3 12 7 13 5 4v2l5 2 4 3 9 4 21 5 8 5 5 5-12-3-19-7-21-10-13-9-13-10-10-9-6-5-14-16-9-14-8-16-5-16-2-10-1-10v-12l3-21 7-21 8-15 9-12 14-15 12-12 17-13z" fill="#CA9143"/>
<path transform="translate(478,523)" d="m0 0 3 1-1 7-5 9-3 3-14 5-21 5-6 1 14-1 19-4 7-2-2 5-8 8-15 10-16 6-20 4-11 1h-16l-17-2-16-5-13-7-11-11-3-5v-2l10 2 20 3 19 1-28-4-16-4-9-4-4-12-1-7 12 1 19 3 27 2h42l35-3z" fill="#FBFAF6"/>
<path transform="translate(327,443)" d="m0 0h17l10 3 8 5 7 10 2 6v12l-4 11-9 10-10 5-4 1h-17l-9-3-8-5-7-9-3-9v-15l5-10 8-7 10-4z" fill="#FBFAF6"/>
<path transform="translate(454,443)" d="m0 0h17l11 4 8 6 5 6 2 6v16l-3 8-6 8-9 6-9 3h-17l-11-4-9-8-5-9-2-9v-7l3-10 9-10 8-4z" fill="#FCFAF6"/>
<path transform="translate(526,502)" d="m0 0h6l6 4 4 5v11l-3 8-5 9-7 8-11 8-5 5-9 5-5 3-2 1 2 2-29 9-20 8-13 4-21 3h-35l-24-4-10-3 3-2 1-1 3-1 5 2 9 2 13 1h34l20-3 17-4 13-6 12-7 13-12 8-8 4-6 1 2-1 2 3-1 6-10 7-14 3-7 5-4 11 1-3-2-7-3z" fill="#2D0E0C"/>
<path transform="translate(512,251)" d="m0 0 6 5 1 4 4 2 9 11 7 14 4 2 6 16 3 12 14 11 10 9 7 7 10 13 8 13 8 16 5 16 3 17v21l-4 20-6 17-9 17-10 14-9 10-14 14-17 13-15 9-15 8-19 8h-5l3-3 5-3 12-7 4-5 6-4 6-5 6-9 3-5h3l2-2-1 5-6 11h-2l-1 4 10-6 8-6 10-8 4-4h2l1-3 3-3h2v-2l5-5 9-10 9-15 7-15 6-21 1-6v-28l-5-20-5-13-8-15-12-17-18-18-11-9-14-9-28-15-5-3 1-8 2 4 20 9 9 6 6 3-1-8-5-13-4-8-7-11-12-13-3-3z" fill="#22100F"/>
<path transform="translate(311,519)" d="m0 0h8l8 2 21 3 14 1h63l40-4 9-2h11v8l-3 10-2 5h-2l-2 7-7 9-7 7-14 9-16 7-11 3-16 2h-24l-18-3-13-4-12-6-10-8-10-13-5-11-2-7-1-14zm167 4-29 4-35 3h-42l-27-2-25-4h-6l3 14 3 6 14 5 29 5 9 1-19-1-20-3-10-2 2 5 7 8 8 7 15 7 17 4 11 1h16l18-2 19-5 12-5 14-10 7-7 2-5-11 3-15 3-14 1 24-5 12-4 6-3 4-5 4-9-1-5z" fill="#3B140F"/>
<path transform="translate(331,363)" d="m0 0 1 2-1 6-1 50-10-1 10 5 1 2v8l3 1-1 2-9 2-12 4-7 3-6 4-5 3h-2l2-11 6-18 2-3 3-9 8-18 10-19 7-12z" fill="#F7C6A0"/>
<path transform="translate(372,255)" d="m0 0h41l2 4v3h2l2 11 2 10v4l-5-1-15-6-14-3-1-3h-26l-5-1v-2l-7-1-13-5-2-2 8-3 14-3z" fill="#AC3C28"/>
<path transform="translate(248,285)" d="m0 0 5 5 4 5 10 8 3 2-7 3-17 10-11 9-10 9-13 13-9 11-9 14-6 13-6 20-2 17v12l2 15 5 19 8 16 6 10 9 12 8 8-1 2-7-5h-3l-10-13-11-19-7-18-3-13-1-8v-20l2-16 5-17 7-16 9-15 11-13 11-12 13-11 5-5 3-14 5-15z" fill="#23110F"/>
<path transform="translate(265,493)" d="m0 0h6l1 3v7l-13 4-2 3 6-3h9l4 10 6 17 2 6-14-7-1 1 7 6 10 4 8 9v2h-6l-15-5-8-5-5-4-6-9-4-9-1-4v-16l6-7z" fill="#F7C69F"/>
<path transform="translate(210,512)" d="m0 0 9 6 12 11 20 15 11 7 21 10 27 9-5-5-10-4-17-4-12-6-6-4v-2l-4-2-6-9-1-3 3-1 1-2 5 9 4 5 9 6 10 4 13 3-3-4v-8l5 5 8 10 8 7 8 6 16 8 15 6-1 2h-8l-21-8-26-8-20-8-21-11-15-10-10-8-10-9-10-10z" fill="#20100F"/>
<path transform="translate(526,502)" d="m0 0h6l6 4 4 5v11l-3 8-5 9-7 8-10 7-9 3h-12l2-4 5-5 15-3v-3l-6 1v2l-7 1 1-4 8-16 4-10 6-5 11 1-3-2-7-3z" fill="#F6C59C"/>
<path transform="translate(326,438)" d="m0 0h18l9 2 9 5 8 8 5 9v18l-4 12-8 9-9 6-8 3h-20l-9-3-11-7-7-9-4-9v-16l3-8 6-9 10-7zm1 5-12 4-8 6-4 5-3 7v15l4 11 8 9 10 5 5 1h17l11-4 9-8 5-8 2-7v-12l-3-8-6-8-10-6-8-2z" fill="#261210"/>
<path transform="translate(457,438)" d="m0 0h14l6 2 10 4 10 10 4 8 1 6v10l-3 11-6 9-8 6h-2v2l-11 4h-18l-14-5-9-7-6-8-3-7v-17l3-9 6-8 8-6 12-4zm-3 5-11 3-8 6-6 7-3 10 1 13 4 9 8 9 10 5 4 1h17l11-4 8-6 6-8 2-7v-16l-4-9-9-8-9-4-4-1z" fill="#241210"/>
<path transform="translate(480,533)" d="m0 0h3l-3 9h-2l-2 7-7 9-7 7-14 9-16 7-11 3-16 2h-24l-18-3-13-4-12-6 2-4 6 2 12 5 14 3 11 1h16l18-2 19-5 12-5 14-10 8-9 1-2-11 4-15 3-8 1h-9l3-2 24-5 12-4 6-3 5-7z" fill="#421911"/>
<path transform="translate(281,248)" d="m0 0 4 1 12 26 7 9v3l-11 1-26-11-5-3 1-5 4-5 7-8z" fill="#E4AA58"/>
<path transform="translate(601,483)" d="m0 0 1 4-8 13-10 13-19 19-17 13-15 9-15 8-19 8h-5l3-3 5-3 12-7 4-5 6-4 6-5 6-9 3-5h3l2-2-1 5-6 11h-2l-1 4 10-6 8-6 10-8 4-4h2l1-3 3-3h2v-2l5-5 9-10 8-13z" fill="#20100F"/>
<path transform="translate(443,260)" d="m0 0h8l20 5 33 11-4 7-4 4-8-1-26-8-9-3-10-14z" fill="#AC3C28"/>
<path transform="translate(444,216)" d="m0 0 9 1 19 8 18 10 13 10 8 7 7 8 9 10-1 3-2 2-5-4-6-7-13-13-11-8-11-7-14-7-7-3-8-4 2-2-7-3z" fill="#F3C195"/>
<path transform="translate(459,578)" d="m0 0 2 1-5 6-21 7-21 3h-35l-24-4-10-3 3-2 1-1 3-1 5 2 9 2 13 1h34l20-3 17-4z" fill="#411711"/>
<path transform="translate(266,305)" d="m0 0 6 1 10 6v2l-16 5-19 10-10 7h-4l1-7-2-1 17-13z" fill="#C98E42"/>
<path transform="translate(326,438)" d="m0 0h18l9 2 9 5 7 7-2 1-1 2-4-2v-2l-5-2-8-4-5-1h-17l-12 4-8 6-5 8-1 3-1 16-3-1-2 2v-16l3-8 6-9 10-7z" fill="#35130E"/>
<path transform="translate(248,285)" d="m0 0 5 5 4 5 10 8 3 2-7 3-17 10-5-2-1-10 6-18z" fill="#280C0B"/>
<path transform="translate(311,519)" d="m0 0h8l2 1v2l5 1 2 2h-8l-6-1 5 16 1 3 14 5 29 5 11 1-2 2-19-1-20-3-10-3 6 9 8 8 3 2-2 4-7-4-8-9-5-7-5-11-2-7-1-14z" fill="#24120F"/>
<path transform="translate(509,279)" d="m0 0 6 2 15 9 4 2v2l6-1 4 12v7l-1-2-6-2-13-8-16-7-1-5z" fill="#AC3D28"/>
<path transform="translate(338,457)" d="m0 0 7 1 5 6 1 8-3 6-8 4-6-1-5-5-2-4v-7l5-6z" fill="#170F0F"/>
<path transform="translate(458,457)" d="m0 0 6 1 5 4 2 5v6l-6 7-2 1h-8l-6-5-2-5 1-7 5-5z" fill="#160F0F"/>
<path transform="translate(416,262)" d="m0 0 2 3 2 15 1 7-5-1-15-6-14-3-1-3h-26l-5-1v-1l32-1h30z" fill="#250B0A"/>
<path transform="translate(458,281)" d="m0 0 25 7 7 2v2l-13 8-10 5-3-6-4-12z" fill="#CA8E42"/>
<path transform="translate(442,576)" d="m0 0 1 2h3v2l2 1v2l-20 5-15 2h-34v-2l2-1 33-3 14-3z" fill="#F0F0E9"/>
<path transform="translate(468,440)" d="m0 0h9l10 4 10 10 4 8 1 6v10l-3 11-4 2v2h-2l1-5 2-7v-16l-4-9-8-7-9-4-17-3v-1z" fill="#281210"/>
<path transform="translate(452,225)" d="m0 0 12 3 21 11 12 9 10 9 4 4v2l3 1 1 4-6-3-12-10-14-10-21-12-9-6z" fill="#2F0E0C"/>
<path transform="translate(331,569)" d="m0 0 4 1 10 6 14 5 14 3 17 2v1l-9 1-2 1h-13l-13-3-7-2-13-5-1-5v-3z" fill="#F7E8D9"/>
<path transform="translate(492,491)" d="m0 0 1 2h2v-2h2l-2 4-5 6-5 3h-2v2l-11 4h-18l-14-5-9-7-2-3 5-1 8 7 11 4h17l11-4 8-6z" fill="#2E1511"/>
<path transform="translate(252,528)" d="m0 0 3 4 4 6 5 5 5 4 12 5 7 2h7v2l-2 1 9 3 1 3-16-4-11-3-10-5-6-4v-2l-4-2-6-9-1-3 3-1z" fill="#2E0E0C"/>
<path transform="translate(231,329)" d="m0 0h3l1 4v2l-2 4-14 11-6 6h-2v2h-2v2l-3 2-3-1 2-5 15-16z" fill="#DFA458"/>
<path transform="translate(480,533)" d="m0 0h3l-3 9h-2l-2 7-7 9-3-2 3-4 2-5-11 4-15 3-8 1h-9l3-2 24-5 12-4 6-3 5-7z" fill="#421510"/>
<path transform="translate(512,251)" d="m0 0 6 5 1 4 4 2 9 11 7 14 4 2 6 16 1 10-2-2-2 1-2-1-2-11-5-13-4-8-7-11-12-13-3-3z" fill="#2E0E0C"/>
<path transform="translate(295,272)" d="m0 0 4 5 5 7v3l-11 1-16-7 3-2 9-4 5-1z" fill="#AC3C28"/>
<path transform="translate(336,429)" d="m0 0 5 2 16 6 9 5 3 5 2 6-4-2-8-7-9-4-17-2v-3h2z" fill="#F3EBDD"/>
<path transform="translate(326,438)" d="m0 0h18l9 2 9 5 7 7-2 1-1 2-4-2v-2l-5-2-8-4-5-1-17-1 3-1v-2z" fill="#401610"/>
<path transform="translate(250,289)" d="m0 0 4 2 9 9-1 3-12 6-4 3h-3l1-4h2l2-13z" fill="#AD4029"/>
<path transform="translate(505,275)" d="m0 0 3 1 1 2-1 10h-1v-8l-6 4-3 4h-19l-17-5 1-2-9-4 3-1 15 4 20 6 5-1z" fill="#240B0A"/>
<path transform="translate(506,288)" d="m0 0 2 4 20 9 9 6 6 3v2h-4l-2-2h-6l-25-13-1-4z" fill="#240B0A"/>
<path transform="translate(308,444)" d="m0 0v3l-5 4-6 11-4 16-2 6h-2v-14l2-14 4-4 5-3z" fill="#FBF3EA"/>
<path transform="translate(474,519)" d="m0 0h11v8l-2 6-4 1 1-10-27 3v-1l-9-1 2-2 25-3z" fill="#24110F"/>
<path transform="translate(388,275)" d="m0 0h15l16 1 2 7v4l-5-1-15-6-13-4z" fill="#C37F3D"/>
<path transform="translate(543,527)" d="m0 0 1 3-4 8-3 5h-2l-1 4 2 1h-3v2l-12 4-3 2-3-1 15-12 6-9 3-5h3z" fill="#34120E"/>
<path transform="translate(457,425)" d="m0 0 2 1-1 1h9l-1 3h-10l-14 6-12 6h-5v-4l17-7z" fill="#441B12"/>
<path transform="translate(452,225)" d="m0 0 12 3 21 11-2 4h-3l-23-13z" fill="#310F0C"/>
<path transform="translate(337,422)" d="m0 0 2 4 21 8 9 4-1 4-5-1-16-7-9-4-2-2z" fill="#4C2014"/>
<path transform="translate(359,582)" d="m0 0 8 1 23 3v1l-9 1-2 1h-13l-13-3-1-3z" fill="#EECAAA"/>
<path transform="translate(513,517)" d="m0 0 4 1-1 6-8 15-4 7-4 1 2-7 8-14z" fill="#220D0C"/>
<path transform="translate(327,547)" d="m0 0 7 1 29 5 11 1-2 2-19-1-20-3-10-3 1 3h-2v-4z" fill="#3D1812"/>
<path transform="translate(291,543)" d="m0 0 5 5 8 10 3 2 1 5 4 3-1 2-8-6-1-4-8-1-3-3h4l-4-5z" fill="#160D0E"/>
<path transform="translate(395,493)" d="m0 0h5l-1 3-9 6v14l-4-2-1-1v-12l5-6z" fill="#3C1710"/>
<path transform="translate(513,546)" d="m0 0h2v2l-8 3v4l7-3 5-2 3 1-10 5-4 1h-12l2-4 5-5z" fill="#ECB98B"/>
<path transform="translate(437,524)" d="m0 0 18 1-2 2-14 2-17 1 1-4 2-1z" fill="#36140F"/>
<path transform="translate(396,215)" d="m0 0h17l12 3-1 2h-21l-6-2z" fill="#C0743A"/>
<path transform="translate(273,449)" d="m0 0h1l4 21 5 13-1 2-7-8-2-6z" fill="#EAEEE6"/>
<path transform="translate(288,560)" d="m0 0h7l10 4 7 6-2 1-21-7z" fill="#D28D4C"/>
<path transform="translate(323,553)" d="m0 0 3 1 7 8 7 6-2 4-7-4-8-9 2-1z" fill="#2F1411"/>
<path transform="translate(278,547)" d="m0 0 9 1 4 1 3 4v2h-6l-15-5v-2z" fill="#F6EBDE"/>
<path transform="translate(500,561)" d="m0 0h5l-3 4-17 5-4-1 8-6 2-1z" fill="#BA754B"/>
<path transform="translate(422,347)" d="m0 0 3 1 8 13 4 8-1 2-3-5-6-1-2-7z" fill="#F7ECE0"/>
<path transform="translate(512,251)" d="m0 0 6 5 1 4 4 2 9 11 4 8-1 2-3-3-5-9-14-15-2-4z" fill="#2B0D0B"/>
<path transform="translate(336,429)" d="m0 0 5 2 7 3-4 2 7 2v1l-18-1v-3h2z" fill="#F3F1E9"/>
<path transform="translate(263,549)" d="m0 0 4 2 11 5 12 3-2 1v3l-9-3-17-8z" fill="#BC6A36"/>
<path transform="translate(296,464)" d="m0 0 4 1v16l-3-1-2 2v-16z" fill="#421811"/>
<path transform="translate(516,545)" d="m0 0 6 1v3l-10 5-5 1-1-4 9-3z" fill="#FEF9F4"/>
<path transform="translate(275,252)" d="m0 0 3 1-9 9-4 6-4 5-1-3 2-3h2v-3l-2 1 2-4z" fill="#2B100D"/>
<path transform="translate(549,535)" d="m0 0 2 1-11 9-6 2 1-4h2l2-5 3-2z" fill="#E0A552"/>
<path transform="translate(425,477)" d="m0 0h1v5h2l4 9 1 3-5 1-4-7-1-8z" fill="#25110F"/>
<path transform="translate(304,284)" d="m0 0 3 2v2h3l1 4-3 2-4-1-7-4 1-2h6z" fill="#522717"/>
<path transform="translate(267,532)" d="m0 0 5 1 14 7v4l-10-3-9-8z" fill="#723720"/>
<path transform="translate(468,552)" d="m0 0 2 1-3 3v4l-9 8-4-1 5-5z" fill="#230E0D"/>
<path transform="translate(451,549)" d="m0 0 3 1 2 2-19 3h-9l3-2z" fill="#79321F"/>
<path transform="translate(469,543)" d="m0 0 2 1v3l-11 4h-7l2-3 12-4z" fill="#491D13"/>
<path transform="translate(347,551)" d="m0 0 27 3-2 2-19-1-9-1z" fill="#803520"/>
<path transform="translate(422,466)" d="m0 0 2 4 2-1 1 13h-3l-1 4-1-3z" fill="#34120D"/>
<path transform="translate(348,434)" d="m0 0 9 3 1 4-3 1-5-2-2-2-5-2v-1z" fill="#F8D0AF"/>
<path transform="translate(503,454)" d="m0 0h1l1 7v10h-2v5h-1l-1-16 1-3z" fill="#E9B283"/>
<path transform="translate(470,575)" d="m0 0h8v2l-21 7 1-3 10-4h2z" fill="#311612"/>
<path transform="translate(291,543)" d="m0 0 5 5 6 9-4-1-4-3-3-2z" fill="#2F0E0C"/>
<path transform="translate(324,439)" d="m0 0h9l-3 1v2h-3v2l-9 1v-2h2v-3z" fill="#1C0F0E"/>
<path transform="translate(482,240)" d="m0 0 5 1 4 2 2 5-4 1-6-4z" fill="#170D0D"/>
<path transform="translate(468,440)" d="m0 0h9l1 3-1 2-19-3v-1z" fill="#1B0F0E"/>
<path transform="translate(398,216)" d="m0 0h13l10 2v1h-16l-7-2z" fill="#250B0A"/>
<path transform="translate(267,503)" d="m0 0h5v4l-9 1-3 2h-3l2-4z" fill="#3D1710"/>
<path transform="translate(563,331)" d="m0 0 4 2 8 8 8 7v3l-7-6-13-13z" fill="#250B0A"/>
<path transform="translate(457,438)" d="m0 0h14l1 2-4 1h-11l-6-1v-1z" fill="#512215"/>
<path transform="translate(433,435)" d="m0 0h2l-1 5-4 2h-5v-4z" fill="#2D1511"/>
<path transform="translate(347,578)" d="m0 0 6 1 6 2v2l-11 1-3-3h3z" fill="#F6F4ED"/>
<path transform="translate(269,278)" d="m0 0 5 1 19 8 4 2-8-1-15-6z" fill="#250B0A"/>
<path transform="translate(332,578)" d="m0 0 17 6 2 2-4 1h-3v-2l-9-3-3-2z" fill="#220B0A"/>
<path transform="translate(524,504)" d="m0 0 1 3 10 3v3l-13-1z" fill="#5B2016"/>
<path transform="translate(359,435)" d="m0 0 9 2 1 4-4 1-6-3z" fill="#27110F"/>
<path transform="translate(514,542)" d="m0 0h4v3l-8 3h-7l3-3h6v-2z" fill="#4E2115"/>
<path transform="translate(480,533)" d="m0 0h3l-3 9-4-1-4 2 6-9z" fill="#421C14"/>
<path transform="translate(605,475)" d="m0 0 1 4-3 6h-3l-3 2 2-6 3-4z" fill="#26100E"/>
<path transform="translate(296,476)" d="m0 0 1 4h4l1 6-2 3-4-4z" fill="#29100E"/>
<path transform="translate(476,540)" d="m0 0h3l-2 6-4 3h-2l-1-5z" fill="#130C0D"/>
<path transform="translate(583,351)" d="m0 0 4 2 8 12-1 3-8-11-3-4z" fill="#250B0A"/>
<path transform="translate(227,408)" d="m0 0 1 3-5 9-2-1 1-3-1-3 1-2z" fill="#DB9E4D"/>
<path transform="translate(509,265)" d="m0 0 4 1 6 3 2 5-7-3v-2l-5-2z" fill="#BE6C38"/>
<path transform="translate(554,450)" d="m0 0 4 2 3 4-1 2h-6z" fill="#DEA450"/>
<path transform="translate(457,425)" d="m0 0 2 1-1 1h9l-1 3h-10l-3 1v-2l-3-1z" fill="#6E301D"/>
<path transform="translate(563,523)" d="m0 0h2l-2 4-8 7-3-1 6-5z" fill="#DDA14E"/>
<path transform="translate(534,285)" d="m0 0 4 4 1 6-5-1-2-5h2z" fill="#F2C190"/>
<path transform="translate(307,561)" d="m0 0 8 6 5 5-4-1-9-6z" fill="#2D0D0B"/>
<path transform="translate(288,560)" d="m0 0h7l2 1v2l3 1-4 1-8-2z" fill="#E3BE98"/>
<path transform="translate(562,427)" d="m0 0 5 1v3l1 7h-2l-4-9z" fill="#D89C52"/>
<path transform="translate(489,563)" d="m0 0 2 1-3 1v2l4 1-7 2-4-1z" fill="#BE6F38"/>
<path transform="translate(542,292)" d="m0 0 4 4 1 8-4-5-2-3z" fill="#201110"/>
<path transform="translate(513,517)" d="m0 0 4 1-1 6-2 2-1-2-2 1z" fill="#401C13"/>
<path transform="translate(415,279)" d="m0 0 5 1 1 7h-3l-3-7z" fill="#D7934A"/>
<path transform="translate(275,252)" d="m0 0 3 1-8 8-2-1 2-4z" fill="#2E120F"/>
<path transform="translate(281,558)" d="m0 0 9 1-2 1v3l-7-2z" fill="#CC8544"/>
<path transform="translate(419,217)" d="m0 0 6 1-1 2h-21v-1l16-1z" fill="#C68740"/>
<path transform="translate(242,498)" d="m0 0h2v7l-2 2-1-3-3-1z" fill="#E4A85A"/>
<path transform="translate(535,283)" d="m0 0h2l2 4 4 2-2 4h-2z" fill="#290C0B"/>
<path transform="translate(512,251)" d="m0 0 6 5 1 4-4-2-4-4z" fill="#461711"/>
<path transform="translate(342,579)" d="m0 0h6v4l-2 1-8-3z" fill="#E8B18A"/>
<path transform="translate(469,543)" d="m0 0 2 1v3l-5 2-4-1 5-4z" fill="#361812"/>
<path transform="translate(537,541)" d="m0 0h5l-2 4-6 2 1-4h2z" fill="#CFC6AA"/>
<path transform="translate(208,507)" d="m0 0 7 6 3 3-1 2-8-7z" fill="#250B0A"/>
</svg>
